<?xml version="1.0" encoding="UTF-8" standalone="no"?>
<svg
   xmlns:dc="http://purl.org/dc/elements/1.1/"
   xmlns:cc="http://creativecommons.org/ns#"
   xmlns:rdf="http://www.w3.org/1999/02/22-rdf-syntax-ns#"
   xmlns:svg="http://www.w3.org/2000/svg"
   xmlns="http://www.w3.org/2000/svg"
   xmlns:sodipodi="http://sodipodi.sourceforge.net/DTD/sodipodi-0.dtd"
   xmlns:inkscape="http://www.inkscape.org/namespaces/inkscape"
   width="263.52481mm"
   height="164.43634mm"
   viewBox="0 0 263.52481 164.43634"
   version="1.1"
   id="svg8"
   inkscape:version="1.0.1 (3bc2e813f5, 2020-09-07)"
   sodipodi:docname="drawing.svg">
  <style
     id="style27"></style>
  <defs
     id="defs2">
    <clipPath
       clipPathUnits="userSpaceOnUse"
       id="clipPath28">
      <path
         d="M 0,450 H 450 V 0 H 0 Z"
         id="path26" />
    </clipPath>
    <clipPath
       clipPathUnits="userSpaceOnUse"
       id="clipPath36">
      <path
         d="m 0.75,235.59 h 450 V -0.75 h -450 z"
         id="path34" />
    </clipPath>
    <clipPath
       clipPathUnits="userSpaceOnUse"
       id="clipPath52">
      <path
         d="m 145.765,373.526 h 166 V 269.944 h -166 z"
         id="path50" />
    </clipPath>
  </defs>
  <sodipodi:namedview
     id="base"
     pagecolor="#ffffff"
     bordercolor="#666666"
     borderopacity="1.0"
     inkscape:pageopacity="0.0"
     inkscape:pageshadow="2"
     inkscape:zoom="0.7"
     inkscape:cx="331.14852"
     inkscape:cy="288.11152"
     inkscape:document-units="mm"
     inkscape:current-layer="layer1"
     inkscape:document-rotation="0"
     showgrid="false"
     inkscape:window-width="1267"
     inkscape:window-height="1198"
     inkscape:window-x="104"
     inkscape:window-y="104"
     inkscape:window-maximized="0"
     fit-margin-top="0"
     fit-margin-left="0"
     fit-margin-right="0"
     fit-margin-bottom="0"
     inkscape:pagecheckerboard="true" />
  <metadata
     id="metadata5">
    <rdf:RDF>
      <cc:Work
         rdf:about="">
        <dc:format>image/svg+xml</dc:format>
        <dc:type
           rdf:resource="http://purl.org/dc/dcmitype/StillImage" />
        <dc:title></dc:title>
      </cc:Work>
    </rdf:RDF>
  </metadata>
  <g
     inkscape:label="Layer 1"
     inkscape:groupmode="layer"
     id="layer1"
     transform="translate(12.259948,-40.256002)">
    <g
       id="g22"
       transform="matrix(1.5874999,0,0,-1.5874999,-243.66203,633.22849)"
       style="fill:#65c66a;fill-opacity:1">
      <g
         id="g24"
         clip-path="url(#clipPath28)"
         style="fill:#65c66a;fill-opacity:1">
        <g
           id="g30"
           style="fill:#65c66a;fill-opacity:1">
          <g
             id="g32"
             style="fill:#65c66a;fill-opacity:1" />
          <g
             id="g44"
             style="fill:#65c66a;fill-opacity:1">
            <g
               clip-path="url(#clipPath36)"
               id="g42"
               style="fill:#65c66a;fill-opacity:1">
              <g
                 transform="translate(0.75,213)"
                 id="g40"
                 style="fill:#65c66a;fill-opacity:1" />
            </g>
          </g>
        </g>
        <g
           id="g46"
           style="fill:#65c66a;fill-opacity:1">
          <g
             id="g48"
             style="fill:#65c66a;fill-opacity:1" />
          <g
             id="g60"
             style="fill:#65c66a;fill-opacity:1">
            <g
               clip-path="url(#clipPath52)"
               id="g58"
               style="fill:#65c66a;fill-opacity:1">
              <g
                 transform="translate(197.6801,338.2744)"
                 id="g56"
                 style="fill:#65c66a;fill-opacity:1">
                <path
                   d="M 0,0 C 0,-8.551 6.906,-15.478 15.481,-15.527 24.04,-15.576 31.122,-8.5 31.074,0.054 31.025,8.57 23.977,15.578 15.497,15.54 6.94,15.501 0,8.542 0,0 M 70.553,8.783 C 70.46,8.693 70.368,8.603 70.276,8.512 73.165,-0.423 73.366,-9.376 70.406,-18.304 67.442,-27.243 62.08,-34.537 54.188,-39.59 40.175,-48.56 25.241,-49.645 10.899,-41.223 -8.302,-29.947 -13.656,-12.546 -8.274,8.8 -9.363,8.09 -10.386,7.435 -11.396,6.762 -20.368,0.775 -27.727,-6.8 -33.561,-15.857 c -0.213,-0.33 -0.23,-1.059 -0.008,-1.355 2.698,-3.596 5.245,-7.336 8.244,-10.666 6.286,-6.979 13.717,-12.534 22.125,-16.775 9.27,-4.677 19.08,-7.368 29.427,-8.034 11.597,-0.747 22.778,1.119 33.558,5.495 6.842,2.778 13.136,6.475 18.896,11.055 6.646,5.284 12.279,11.517 16.938,18.631 0.507,0.775 0.438,1.243 -0.04,1.973 C 90.328,-7.505 83.828,-0.665 76.111,5.016 74.31,6.342 72.408,7.531 70.553,8.783 m 43.532,-25.057 v -0.531 c -0.399,-0.627 -0.814,-1.244 -1.195,-1.882 -1.693,-2.839 -3.257,-5.763 -5.088,-8.508 -4.102,-6.15 -8.81,-11.84 -14.399,-16.673 -4.259,-3.683 -8.722,-7.189 -13.406,-10.306 -6.408,-4.264 -13.418,-7.416 -20.775,-9.766 -7.355,-2.349 -14.872,-3.819 -22.577,-4.24 -12.079,-0.66 -23.865,0.838 -35.338,4.788 -6.88,2.37 -13.393,5.49 -19.503,9.392 -6.145,3.924 -11.765,8.52 -16.839,13.801 -4.759,4.952 -9.006,10.275 -12.588,16.127 -1.469,2.399 -2.864,4.844 -4.292,7.267 0,0.177 0,0.354 0,0.531 0.4,0.625 0.816,1.241 1.196,1.878 1.719,2.874 3.31,5.832 5.164,8.614 4.049,6.077 8.831,11.548 14.179,16.523 4.178,3.887 8.685,7.363 13.512,10.391 6.563,4.117 13.527,7.41 20.93,9.765 7.317,2.327 14.79,3.785 22.451,4.204 12.125,0.662 23.955,-0.842 35.465,-4.832 6.834,-2.368 13.306,-5.467 19.379,-9.347 6.146,-3.927 11.768,-8.523 16.844,-13.802 4.762,-4.951 9.01,-10.274 12.591,-16.128 1.468,-2.399 2.862,-4.843 4.289,-7.266"
                   style="fill:#65c66a;fill-opacity:1;fill-rule:nonzero;stroke:none"
                   id="path54" />
              </g>
            </g>
          </g>
        </g>
      </g>
    </g>
  </g>
</svg>
